<svg width="16" height="16" viewBox="0 0 16 16" fill="none" xmlns="http://www.w3.org/2000/svg">
<g clip-path="url(#clip0)">
<path d="M2 7.99996V4.66663C2 4.48981 2.07024 4.32025 2.19526 4.19522C2.32029 4.0702 2.48986 3.99996 2.66667 3.99996C2.84348 3.99996 3.01305 4.0702 3.13807 4.19522C3.2631 4.32025 3.33333 4.48981 3.33333 4.66663V5.99996H4.66667V4.66663C4.66667 4.13619 4.45595 3.62749 4.08088 3.25241C3.70581 2.87734 3.1971 2.66663 2.66667 2.66663C2.13623 2.66663 1.62753 2.87734 1.25245 3.25241C0.87738 3.62749 0.666667 4.13619 0.666667 4.66663V7.99996H0V9.33329H16V7.99996H2Z" fill="#457A90"/>
<path d="M12.0002 5.99996C12.3684 5.99996 12.6668 5.70148 12.6668 5.33329C12.6668 4.9651 12.3684 4.66663 12.0002 4.66663C11.632 4.66663 11.3335 4.9651 11.3335 5.33329C11.3335 5.70148 11.632 5.99996 12.0002 5.99996Z" fill="#457A90"/>
<path d="M10.0002 4.6667C10.3684 4.6667 10.6668 4.36823 10.6668 4.00004C10.6668 3.63185 10.3684 3.33337 10.0002 3.33337C9.63198 3.33337 9.3335 3.63185 9.3335 4.00004C9.3335 4.36823 9.63198 4.6667 10.0002 4.6667Z" fill="#457A90"/>
<path d="M8.66667 7.33333C9.03487 7.33333 9.33334 7.03485 9.33334 6.66666C9.33334 6.29848 9.03487 6 8.66667 6C8.29848 6 8 6.29848 8 6.66666C8 7.03485 8.29848 7.33333 8.66667 7.33333Z" fill="#457A90"/>
<path d="M0.666504 12C0.667496 12.8838 1.019 13.731 1.64391 14.3559C2.26882 14.9808 3.11609 15.3323 3.99984 15.3333V16H5.33317V15.3333H10.6665V16H11.9998V15.3333C12.8836 15.3323 13.7309 14.9808 14.3558 14.3559C14.9807 13.731 15.3322 12.8838 15.3332 12V10H0.666504V12Z" fill="#457A90"/>
</g>
<defs>
<clipPath id="clip0">
<rect width="16" height="16" fill="white"/>
</clipPath>
</defs>
</svg>
