<svg width="16" height="16" viewBox="0 0 16 16" fill="none" xmlns="http://www.w3.org/2000/svg">
<g clip-path="url(#clip0)">
<path d="M6.15359 3.53473C7.12968 3.53473 7.92096 2.74345 7.92096 1.76736C7.92096 0.791276 7.12968 0 6.15359 0C5.17751 0 4.38623 0.791276 4.38623 1.76736C4.38623 2.74345 5.17751 3.53473 6.15359 3.53473Z" fill="#457A90"/>
<path d="M7.07361 16.0001C8.38192 16.0001 9.64241 15.5238 10.6237 14.6592C11.0349 14.2958 11.3849 13.8769 11.6641 13.416L10.1015 11.8532C9.9121 12.32 9.61563 12.7427 9.23117 13.0812C8.63442 13.6072 7.8693 13.8961 7.07361 13.8961C5.27373 13.8961 3.80858 12.4309 3.80858 10.6311C3.80858 10.0878 3.94247 9.56949 4.18349 9.11424V6.10742C2.67817 7.06953 1.70459 8.75656 1.70459 10.6329C1.70459 12.0675 2.26311 13.4141 3.27686 14.4297C4.2906 15.4454 5.63906 16.0001 7.07361 16.0001Z" fill="#457A90"/>
<path d="M4.85303 4.82575V5.74387V8.24V10.5066C4.85303 10.8241 5.10932 11.0804 5.42685 11.0804H10.2756L10.3024 11.1072L11.9875 12.7923L12.6417 13.4465C12.7545 13.5593 12.8999 13.6148 13.0472 13.6148C13.1945 13.6148 13.3418 13.5593 13.4527 13.4465L14.1279 12.7713C14.3517 12.5475 14.3517 12.1841 14.1279 11.9603L11.3143 9.14472C11.2071 9.03761 11.0618 8.97642 10.9087 8.97642L6.95704 8.97447V6.35402H10.5721C10.8896 6.35402 11.1459 6.09773 11.1459 5.78019V4.82382C11.1459 4.50631 10.8896 4.25 10.5721 4.25H5.42685C5.10932 4.25193 4.85303 4.50824 4.85303 4.82575Z" fill="#457A90"/>
</g>
<defs>
<clipPath id="clip0">
<rect width="16" height="16" fill="white"/>
</clipPath>
</defs>
</svg>
