<svg fill="none" height="50" viewBox="0 0 78 50" width="78" xmlns="http://www.w3.org/2000/svg"><g clip-rule="evenodd" fill="#464646" fill-rule="evenodd"><path d="m4.6723 25.0003c0-4.9303 2.32336-9.4972 6.2754-13.2357.1178-.2093.4687-.5845 1.0538-1.1249.8286-.7678 1.6718-1.34642 2.5284-1.73831 6.205-4.21504 14.8272-6.82839 24.3615-6.82839-19.6986 0-35.66728 10.2649-35.66728 22.9273 0 12.6621 15.96868 22.9269 35.66728 22.9269-18.8981 0-34.2191-10.2648-34.2191-22.9269z"/><path d="m38.8921 2.073c13.1147 0 24.5043 4.94377 30.2486 12.2012-.0099-.3767-.3491-.8722-1.0923-1.8117l1.69 1.4936c.1392.3705.0398.6659-.1519.9012 2.2552 3.0583 3.5247 6.5009 3.5247 10.143 0 12.6621-15.3202 22.9269-34.2191 22.9269 19.6989 0 35.6676-10.2648 35.6676-22.9269 0-12.6624-15.9687-22.9273-35.6676-22.9273z"/><path d="m14.3297 20.4202c-.6029 0-1.1162-.2257-1.5258-.671-.4068-.4479-.6127-.9947-.6127-1.6255 0-1.6569.8965-3.3435 2.6645-5.0128 1.7697-1.6654 3.6898-2.6369 5.7069-2.8878l.0747-.0092.0329.0673c.2987.6103.4441 1.201.4441 1.8056 0 1.8784-.7489 3.7548-2.2262 5.5769-1.4782 1.829-3.012 2.7565-4.5584 2.7565zm6.1839-9.9791c-1.9445.2597-3.7991 1.209-5.5133 2.8223-1.7245 1.6279-2.5988 3.2632-2.5988 4.8603 0 .5851.1827 1.0708.5578 1.4841.3727.4053.8212.6025 1.3704.6025 1.4797 0 2.9584-.9012 4.3946-2.6783 1.4464-1.784 2.1797-3.616 2.1797-5.4452 0-.5497-.128-1.0888-.3904-1.6457z"/><path d="m38.8918 48.0321c-18.9263 0-34.32417-10.3321-34.32417-23.032 0-4.8047 2.18122-9.4078 6.30797-13.3118l.5054-.4779-.3412.6053c-.0036.0065-.0069.0125-.0097.0181.0329-.0302.0808-.0763.1511-.146.9446-1.1327 1.9583-1.97638 3.032-2.52597l-.7765.35538 1.0346-.70279c6.4993-4.41507 15.1723-6.84665 24.4205-6.84665 12.7327 0 24.355 4.69052 30.3312 12.24123l.0218.0275.0008.0348c.0101.3866-.2759.6512-.6812.9828l-.1222.1-.0453-.1511c-.2276-.7589-.6558-1.4661-1.273-2.1016-1.2996-1.3389-3.0746-2.1048-5.2756-2.2767-2.194-.1727-3.9136.3232-5.103 1.4712-.4912.4739-.7439 1.0181-.7508 1.6172-.0066.5975.2345 1.1523.7163 1.6488 1.1194 1.1541 2.8874 1.749 5.2546 1.769l.1431.0007c2.3147 0 4.3828-.5622 6.1466-1.6708l.1053-.0661.0482.1143c.1765.4213.3182.816.4255 1.1886-.0957-.436-.2135-.8865-.3335-1.3266l-.0214-.0783.0707-.0403c.0399-.0225.087-.0478.1396-.0758.2374-.1266.597-.3182.8153-.5856l.0858-.1055.0805.1093c2.3523 3.1902 3.545 6.6237 3.545 10.2053 0 12.6999-15.3978 23.032-34.3243 23.032zm-28.0474-36.0233c-3.97013 3.827-6.06649 8.3142-6.06649 12.9913 0 12.5842 15.30349 22.8221 34.11389 22.8221s34.114-10.2379 34.114-22.8221c0-3.497-1.1531-6.8526-3.4279-9.9765-.2414.2461-.5658.419-.7895.5381-.0221.0118-.0432.023-.0631.0338.2313.8526.4499 1.7387.5155 2.491.2356 2.6987-.4977 5.2973-1.9611 6.9511-.8973 1.0136-1.9845 1.5727-3.1444 1.6167-.4368 0-.7943-.1644-1.0666-.4887-.2689-.3196-.4052-.7243-.4052-1.2024 0-.2515.0387-.5148.116-.7879-.6467.8688-1.1473 1.4634-1.5218 1.8078-.4908.4517-.957.6712-1.4254.6712-.4958 0-.9157-.2134-1.2477-.6343-.3273-.4151-.4934-.9407-.4934-1.5621 0-.2816.033-.5601.0986-.8325-.2081.2337-.444.496-.7091.7867-1.3604 1.488-2.5432 2.2422-3.5155 2.2422-.6384 0-1.1938-.2472-1.6505-.7346-.4532-.4848-.6826-1.0699-.6826-1.739 0-.1871.0188-.3772.0569-.569-.211.2376-.4513.5043-.721.8004-1.3604 1.488-2.5433 2.2422-3.5159 2.2422-.6392 0-1.1941-.2472-1.6501-.7346-.4532-.4843-.6827-1.0694-.6827-1.739 0-.0978.0051-.1966.0156-.2961-.2099.2571-.4484.5442-.7221.869-1.0795 1.2789-1.9213 1.9007-2.573 1.9007-.4115 0-.7668-.1684-1.0561-.5005-.282-.3292-.4248-.7282-.4248-1.1869 0-.1719.0392-.372.1185-.6035-.6474.8095-1.1397 1.3707-1.4663 1.673-.4292.4096-.8472.6179-1.2412.6179-.4121 0-.766-.1637-1.052-.4866-.2788-.3163-.4202-.711-.4202-1.1733 0-.2989.0664-.6234.1976-.9702-.0895.1083-.1827.2206-.2799.3371-1.0465 1.2504-1.8563 1.8583-2.4754 1.8583-.4137 0-.7657-.1636-1.0466-.4863-.2759-.3162-.4154-.7079-.4154-1.1639 0-.3995.0829-.7747.2464-1.115.1668-.3364.5757-.9788 1.251-1.9646.6544-.9553.9432-1.5498 1.0086-1.831-.2422.0888-.4971.2217-.7595.3967l-.1374.1076c-.6775.534-1.3964 1.4951-2.1366 2.8568-.4553.8391-.8559 1.4528-1.1901 1.824-.3357.3742-.7863.7176-1.3395 1.0203-.6445.3456-1.2709.5355-1.765.5355-.3549-.0305-.6108-.1602-.7693-.386-.1446-.2061-.207-.4938-.1852-.8558-.8649.9308-1.5447 1.3844-2.0732 1.3844-.4038 0-.7421-.1549-1.0048-.4603-.2571-.3038-.3872-.6892-.3872-1.1462 0-.4907.1164-.9742.3462-1.4368.2102-.4278.9113-1.6268 2.2732-3.8874 1.5668-2.5982 2.9088-4.8878 3.9887-6.8051l.0403-.0713.0789.0215c.2415.0655.4655.0988.6653.0988.3263 0 .6216-.0501.8776-.149l.2863-.1106-.158.2624c-3.3898 5.6313-5.7761 9.611-6.4055 10.73-.5959 1.0486-.8979 1.746-.8979 2.0733 0 .4285.2113.4837.3955.4837.3035 0 .9165-.295 2.1134-1.6962.1266-.3802.3404-.7571.6351-1.1206.4681-.5755.9244-.8505 1.3508-.8102.2193.0191.3838.0926.4894.2179.1054.1253.1489.2996.1297.5178-.0431.4928-.4992.9079-1.3553 1.2343-.5964.2289-.9056.5564-.9447 1.0018-.0146.1616.0155.2804.0913.3629.0772.0842.208.1349.3889.1509.9897-.1418.9897-.1418 1.8357-.7248.2328-.2195.455-.4626.6475-.7124.2124-.2752.6804-.9356 1.3909-1.9628.3629-.5172.7809-1.0402 1.242-1.5551.465-.521.8569-.8992 1.1647-1.1236l.1475-.1076c.4833-.3253.9432-.519 1.3696-.5783l.1545-.0215-.024.0951c.3077.2698.4701.6743.4701 1.1711 0 .5966-.3921 1.4738-1.1995 2.6814-.9842 1.4664-1.1907 2.0286-1.1907 2.2422 0 .2896.1297.4188.42.4188.4948 0 1.5632-.6987 3.844-4.0267.028-.0571.0725-.1301.1422-.1615l1.4964-2.5014.0735.0155c.2868.061.513.0916.6733.0916.1598 0 .4548-.031.8765-.0926l.2214-.0323-3.2451 5.3219c-.3049.5012-.4597.949-.4597 1.3306 0 .4305.2122.4856.3971.4856.8398 0 2.2423-1.6429 4.1676-4.8831l1.3296-2.2379.0751.017c.2678.0612.4832.0908.6579.0908.2132 0 .5214-.031.9161-.0926l.2252-.0351-2.2215 3.6085c-.9863 1.6008-1.4863 2.6351-1.4859 3.0743 0 .317.1334.4581.4328.4581.6587 0 1.7763-1.101 3.321-3.2725l.204-.2837c.1312-.2715.3151-.5653.5369-.8585.6022-.79 1.4228-1.4805 2.4393-2.0528.8613-.4952 1.5773-.7464 2.1272-.7464.4919 0 1.0781.2181 1.0781 1.2579 0 .6212-.211 1.2485-.6276 1.8644-.4262.63-.8655.9492-1.3067.9492-.4491 0-.6964-.2469-.6964-.6951 0-.5069.4284-.9718 1.2738-1.3815.5901-.288.8773-.6519.8773-1.1122 0-.3354-.1664-.4849-.5398-.4849-.6902 0-1.5653.7131-2.6006 2.12-1.0421 1.4167-1.5707 2.617-1.5707 3.5675 0 .7596.3425 1.1286 1.0465 1.1286 1.1154 0 2.6459-1.2443 4.5491-3.6989.12-.2269.2792-.4729.464-.7158.6014-.79 1.4221-1.4805 2.4389-2.0528.8614-.4952 1.5773-.7464 2.1272-.7464.4916 0 1.0778.2181 1.0778 1.2579 0 .6212-.2111 1.2485-.6275 1.8644-.4256.6299-.8653.9492-1.3065.9492-.4495 0-.6967-.2469-.6967-.6951 0-.5069.4285-.9718 1.2737-1.3815.5905-.288.8777-.6519.8777-1.1122 0-.3354-.1666-.4849-.5405-.4849-.6899 0-1.5645.7131-2.5999 2.12-1.0426 1.4166-1.5711 2.6168-1.5711 3.5675 0 .7596.3426 1.1286 1.047 1.1286 1.1658 0 2.784-1.359 4.8093-4.0389.5926-.8199 1.5504-1.5941 2.846-2.2997 1.047-.5806 1.9119-.8753 2.5692-.8753.589 0 .9051.2973.9159.8605l.4054-.7699.0797.0193c.2497.0603.4752.0908.67.0908.2305 0 .5339-.031.9014-.0925l.2255-.0376-2.4353 4.0306c-.7899 1.3246-1.1908 2.1997-1.1908 2.6004 0 .4587.2266.5116.3966.5116 1.0832-.041 2.0786-.54 2.8768-1.4428 1.33-1.5048 1.9837-3.9967 1.7484-6.6663-.0579-.6596-.2552-1.3945-.6025-2.2432-1.7745 1.0865-3.844 1.6372-6.1529 1.6372l-.1449-.0008c-2.4255-.0201-4.2438-.6368-5.4042-1.8325-.5217-.5379-.7823-1.1424-.7751-1.7972.0077-.6574.2817-1.2514.8145-1.7657 1.2347-1.1913 3.0064-1.7064 5.2662-1.5296 2.2538.176 4.0738.9633 5.4104 2.3399.5999.618 1.0284 1.3026 1.2753 2.0368.3175-.2696.4756-.4574.4843-.6819-5.944-7.48442-17.4894-12.13266-30.1431-12.13266-8.8338 0-17.137 2.22642-23.5062 6.28657.6166-.18739 1.2412-.28212 1.8657-.28212 1.6059 0 2.796.54516 3.5399 1.62028.9099-.2239 1.9808-.3372 3.1846-.3372.7678 0 1.4971.06187 2.1674.18445.6362.11717 2.1729.46348 4.6967 1.05858 1.9325-.73625 3.7748-1.10948 5.4759-1.10948 1.0104 0 1.8402.11457 2.4662.34025.6568.23463.99.56333.99.97673 0 .476-.4549.8765-1.3529 1.1903-.8652.3027-1.9158.4561-3.1218.4561-1.5683 0-3.5059-.2425-5.7596-.7209-1.0839.52-2.0879 1.3092-2.9848 2.3463-.9219 1.0557-1.9366 2.5975-3.0168 4.5834l-.2661.477c-.108.1923-.2424.4324-.3991.7214-.7471 1.3345-1.3652 2.3049-1.8386 2.8852-.476.5826-1.1205 1.1604-1.9155 1.7171-2.1167 1.4846-4.3392 2.2375-6.606 2.2375-1.3405 0-2.457-.2847-3.31901-.8457-.87367-.5715-1.31625-1.319-1.31625-2.2215 0-.4596.13735-.8581.40821-1.185.27975-.3328.61805-.5013 1.00591-.5013.63293 0 .96754.338.96754.9778 0 .2939-.0975.5525-.2904.7691-.19141.2157-.43135.325-.71273.325-.48137 0-.7355-.2474-.7355-.7157.0141-.1147.0102-.1726.00548-.2-.05989.0334-.11638.1978-.11638.5788 0 .7013.35922 1.2849 1.0977 1.7841.73833.503 1.64713.7578 2.70203.7578 1.6614 0 3.181-.5044 4.5161-1.4989 1.3417-.9983 2.8381-2.7548 4.4473-5.2209.1116-.161.3066-.4501.6115-.9261l.1566-.2449c2.2033-3.321 4.539-5.59 6.9481-6.7514-.5923-.1339-1.1955-.2821-1.7973-.4415-2.3171-.6007-4.1391-.9053-5.4151-.9053-.1899 0-.3809.0047-.5803.0139.3334.6984.5024 1.4861.5024 2.345 0 1.915-.7591 3.743-2.2559 5.4332-1.5 1.6936-3.132 2.5525-4.8503 2.5525-.7424 0-1.3535-.2368-1.8173-.7035-.4621-.4658-.6963-1.0814-.6963-1.8295 0-1.6637.8762-3.3676 2.6046-5.0645 1.6763-1.6493 3.571-2.7202 5.6337-3.18395-.6391-.86338-1.6037-1.30112-2.8699-1.30112-2.2026 0-4.224 1.08459-6.0089 3.22337-.2491.2489-.2792.2614-.3311.2614-.0659 0-.1221-.0293-.1609-.0815zm-1.55474 10.2567c-.32737 0-.60327.1391-.84432.4257-.23853.2876-.35957.6413-.35957 1.0507 0 .8275.41106 1.5157 1.22126 2.046.82697.5383 1.90497.8111 3.20377.8111 2.2226 0 4.4045-.7399 6.4849-2.1991.7794-.5456 1.4098-1.1101 1.8734-1.6779.4655-.5709 1.0771-1.5309 1.8176-2.8538.1563-.2887.2915-.5295.3996-.7226l.2652-.4758c1.0872-1.9983 2.1109-3.553 3.0423-4.6197.8468-.9792 1.7889-1.7428 2.8036-2.2732-2.4517 1.1099-4.8337 3.3903-7.0819 6.7791l-.1555.2436c-.3071.4787-.5037.77-.6146.93-1.621 2.4844-3.1342 4.259-4.4957 5.2721-1.3725 1.0223-2.9345 1.5406-4.6423 1.5406-1.098 0-2.0466-.2673-2.82062-.7941-.78918-.5334-1.18937-1.1921-1.18937-1.9576 0-.2175.00001-.7953.35051-.7953.05042 0 .09653.0206.12946.0581.05944.0673.07501.1819.0507.3719.00081.3365.16277.4925.52599.4925.21857 0 .40536-.0855.55538-.2546.15986-.1794.23755-.3855.23755-.6298 0-.524-.2408-.7679-.75734-.7679zm49.44534.4549-.1975.5013c-.1567.3975-.236.8135-.236 1.2362 0 .5733.1508 1.0552.4484 1.4323.294.3729.6482.5542 1.0824.5542.4129 0 .8327-.2013 1.2826-.6156.4484-.4122 1.1176-1.2384 1.9894-2.4555l.8298-1.1588-.6507 1.2675c-.2719.5297-.4096 1.028-.4096 1.4812 0 .4334.1166.7826.3564 1.0677.217.2584.4867.3936.8223.4115-.2054-.0551-.4207-.2252-.4207-.6976 0-.4452.3991-1.331 1.2205-2.7084l2.2011-3.643c-.282.0408-.5165.0604-.7122.0604-.1901 0-.4051-.0263-.6392-.0783l-1.0806 2.0535.2556-.9322c.0678-.2469.0993-.4255.0993-.5623 0-.465-.2244-.6814-.7061-.6814-.6214 0-1.4516.2855-2.4676.849-1.2685.6909-2.2027 1.4445-2.7783 2.2404-.0972.129-.1939.2549-.2893.3779zm-16.8655-.5717-.8026 1.4437c-.3303.5941-.4977 1.0564-.4977 1.3745 0 .4129.1225.7564.3741 1.0498.2297.2641.4959.4038.8109.425-.2774-.0718-.4271-.2937-.4271-.6427-.0003-.4851.496-1.5267 1.5171-3.1842l1.984-3.2231c-.3023.0417-.5404.0621-.7247.0621-.1736 0-.3801-.026-.6299-.0796l-1.2515 2.1067c-.2345.3947-.4614.7656-.68 1.1128zm-3.9285-.2537-.8562 1.415c-.3828.6318-.5768 1.1986-.5768 1.6844 0 .4097.124.7578.368 1.0346.2225.2514.4818.3868.7895.4114-.2114-.0598-.3995-.2349-.3995-.6689 0-.4206.165-.9047.4901-1.4395l3.0132-4.9421c-.3187.043-.5445.0639-.6862.0639-.1603 0-.3763-.0271-.6432-.0809l-1.4698 2.4574-.0526.0022c.0043.0021-.0117.0195-.0385.0733-.1181.1723-.2338.3389-.3473.5001zm7.5788 1.1742-.1105.4594c-.0529.2196-.0797.439-.0797.6521 0 .6234.2048 1.1454.6261 1.5959.3349.3581.7137.5695 1.1502.6406-.5453-.1411-.8301-.5796-.8301-1.2887 0-1.0101.527-2.2178 1.6113-3.6915.9395-1.277 1.7418-1.9895 2.4389-2.1636-.473.0675-1.06.3017-1.7501.6986-.9923.5584-1.7916 1.2302-2.3759 1.9971-.2136.2823-.3901.5645-.5246.8389l-.2128.2984c-.0855.1202-.1696.2368-.2522.3502.0046-.0058.0096-.0118.0144-.018zm6.6405-.2722-.1523.4408c-.1098.3186-.1657.6358-.1657.9429 0 .623.2049 1.1449.6261 1.5959.3354.3577.7141.5691 1.1499.6405-.5449-.1412-.8298-.5797-.8298-1.2886 0-1.0103.527-2.218 1.6117-3.6915.9397-1.2767 1.7411-1.989 2.4375-2.1634-.4726.0678-1.0593.3019-1.7487.6984-.9926.5584-1.7919 1.2302-2.3759 1.9971-.178.2343-.331.4706-.4554.7026-.0326.0423-.0648.084-.0974.1253zm-22.3725-9.8172c-1.0736 1.9048-2.403 4.1717-3.9516 6.7399-1.3587 2.2551-2.0572 3.4494-2.2649 3.8722-.2156.4337-.3249.8857-.3249 1.3439 0 .4118.1103.7423.3372 1.0103.199.2314.4401.3571.7341.3817-.2103-.06-.3966-.2349-.3966-.6662 0-.3691.3023-1.0809.9247-2.1764.6214-1.1049 2.9512-4.9907 6.266-10.4981-.3803.094-.8084.12-1.324-.0073zm-1.8791 13.1617c-.0773.0128-.161.0255-.2546.039.0817-.0082.1665-.0211.2546-.039zm7.0949-6.6442.0047.0424c.0008.4543-.663 1.4903-1.0588 2.0683-.6605.9644-1.0764 1.6164-1.2358 1.9382-.1494.3106-.2255.6553-.2255 1.0232 0 .404.1225.7494.364 1.0263.212.2434.4604.3775.7569.4075-.2509-.0758-.3857-.2809-.3857-.5956 0-.3577.4009-1.1293 1.226-2.3589.7724-1.1555 1.1643-2.0186 1.1643-2.5647 0-.4175-.1273-.7569-.3686-.9858l-.1697.0601.021-.0833c-.0308.0067-.0617.0143-.0928.0223zm-2.5698 1.993c-.3516.4105-.6742.8242-.9613 1.2335-.7123 1.0295-1.1822 1.6928-1.3972 1.9709-.1994.2587-.4292.51-.6822.7474-.2657.1834-.4549.313-.6177.4084.1139-.0515.2288-.1085.3451-.1707.5314-.2907.9636-.6193 1.2833-.9758.3234-.3592.7141-.9594 1.1618-1.7841.2922-.5377.5822-1.0148.8682-1.4296zm-5.6344 3.0961-.0497.274c-.0148.0806-.0265.1615-.0333.2424-.0156.1776-.0105.3344.0148.4689 0-.0325.0012-.0657.0043-.1003.0464-.5253.4094-.9222 1.0789-1.179.7747-.2953 1.1858-.6508 1.2213-1.0566.0141-.161-.0131-.2837-.0815-.3648-.0682-.0813-.1846-.1295-.3462-.1438-.3575-.0293-.748.2159-1.1692.7334-.2834.3496-.4871.7106-.605 1.0731l-.0199.0357c-.0047.0057-.0098.0113-.0145.017zm31.1109-4.8063c.0073.0489.0101.0981.0101.1458 0 .5409-.3349.9785-.9953 1.3007-.7672.372-1.1561.7732-1.1561 1.193 0 .3356.1501.4854.4865.4854.3668 0 .7478-.2882 1.1318-.8566.3929-.5808.5919-1.1686.5919-1.7473 0-.2046-.0225-.3779-.0689-.521zm-6.5131-.002c.0073.0496.0101.0994.0101.1478 0 .5408-.3349.9785-.9951 1.3007-.767.372-1.1559.7732-1.1559 1.193 0 .3356.15.4854.4861.4854.3668 0 .7478-.2882 1.132-.8568.3929-.5806.5921-1.1684.5921-1.7471 0-.2055-.0229-.3796-.0693-.523zm-33.2715-11.32398c1.0183.16035 1.8082.65042 2.3542 1.46302l.0869.12896-.1526.0321c-2.083.4359-3.9955 1.4997-5.6848 3.1618-1.6867 1.6561-2.5423 3.3098-2.5423 4.9151 0 .691.2139 1.2568.6355 1.6819.4285.4314.9741.6412 1.6679.6412 1.6552 0 3.2343-.8349 4.6923-2.4815 1.4623-1.6507 2.2037-3.4321 2.2037-5.2943 0-.8847-.1856-1.6899-.5514-2.393l-.0747-.1438.162-.0093c.2622-.0152.5083-.0227.7522-.0227 1.2938 0 3.1335.3069 5.4685.9122.7026.186 1.4061.3566 2.0916.507l.3121.0685-.0113.0048.0113.0023c2.2541.4805 4.1887.7239 5.7505.7239 1.1825 0 2.2094-.1494 3.0522-.4445.8044-.2809 1.2122-.6148 1.2122-.9921 0-.3154-.2863-.5775-.8511-.7791-.6033-.21767-1.4087-.32813-2.3948-.32813-1.6841 0-3.5115.37253-5.431 1.10723l-.0304.0115-.0316-.0074c-2.539-.5989-4.0821-.94684-4.7176-1.06368-.6579-.12027-1.3743-.18121-2.1294-.18121-1.2184 0-2.2965.11729-3.2046.34859l-.0724.0187-.0413-.06241c-.5611-.84597-1.4105-1.35706-2.5318-1.52567zm-.8744-.062c-.6876 0-1.376.11876-2.0539.35379.6942-.23292 1.4109-.35021 2.1479-.35021.1033 0 .2044.00293.3037.0085-.1294-.00809-.2617-.01208-.3977-.01208zm47.6917 20.51588h-52.1018v-.2099h52.1018z"/><path d="m37.066 11.9468c-1.2372 0-2.6071-.1731-4.0719-.5147l-2.0717-.4643.3037-.1271c1.5882-.6645 3.3633-1.00159 5.277-1.00159.8125 0 1.5182.10103 2.0982.29999.6163.2113.9288.4799.9288.7983 0 .2864-.2527.5238-.7733.7261-.4865.1879-1.0552.2833-1.6908.2833zm-5.4465-1.0379 1.4217.3187c1.4496.3381 2.8036.5094 4.0248.5094.6095 0 1.1525-.0905 1.6147-.2692.2914-.1132.6391-.2974.6391-.5304 0-.216-.2723-.4234-.7867-.5998-.5582-.1915-1.2411-.2886-2.03-.2886-1.761 0-3.4021.2891-4.8836.8599z"/><path d="m59.9266 26.4668c-.3954 0-.867-.1665-.867-.9587 0-1.0026.6499-2.2717 1.9875-3.8798 1.342-1.6133 2.4067-2.3976 3.2546-2.3976.318 0 .6968.1299.6968.7484 0 .6396-.6036 1.7653-1.8452 3.4412-1.5277 2.05-2.5832 3.0465-3.2267 3.0465zm4.3751-7.0261c-.7707 0-1.811.7811-3.0928 2.3216-1.2866 1.5471-1.9391 2.8073-1.9391 3.7458 0 .5108.2088.7487.6568.7487.5644 0 1.5933-.9961 3.0578-2.9613 1.197-1.6155 1.8039-2.7316 1.8039-3.3164 0-.3726-.1502-.5384-.4866-.5384z"/><path d="m38.8921 0c20.6074 0 37.313 11.1927 37.313 24.9999 0 13.8068-16.7056 24.9997-37.313 24.9997 21.4799 0 38.8921-11.1929 38.8921-24.9997 0-13.8072-17.4122-24.9999-38.8921-24.9999z"/><path d="m1.57943 25.0004c0-13.8072 16.70527-24.99991172 37.31227-24.99991172-21.4791 0-38.8917 11.19271172-38.8917 24.99991172 0 13.8068 17.4126 24.9997 38.8917 24.9997-20.607 0-37.31227-11.1929-37.31227-24.9997z"/><path d="m10.9482 11.7643c1.0774-1.0193 2.2769-1.9761 3.5823-2.86318-.8566.39189-1.6998.97051-2.5285 1.73838-.585.5403-.9359.9155-1.0538 1.1248z"/><path d="m69.7381 13.9557-1.69-1.4935c.7432.9394 1.0824 1.435 1.0923 1.8116.1526.1927.3012.3872.4459.5831.1917-.2352.291-.5306.1518-.9012z"/><path d="m10.9026 11.891c.0177.0623.0533.094.1025.094.0178 0 .1026-.0763.2502-.2234 1.814-2.17381 3.8469-3.26113 6.0897-3.26113 1.367 0 2.3857.49052 3.0472 1.47477-2.109.44136-4.0256 1.50586-5.737 3.18996-1.7154 1.6841-2.5734 3.3457-2.5734 4.9896 0 .7219.2237 1.31.6659 1.7557.4466.4497 1.0274.6723 1.7426.6723 1.6929 0 3.2839-.8376 4.7713-2.5168 1.4876-1.6798 2.2298-3.4661 2.2298-5.3638 0-.9045-.1879-1.7199-.5629-2.4413.2366-.0138.4824-.0225.7459-.0225 1.291 0 3.1049.3029 5.4419.9087.7236.1916 1.4251.3608 2.0957.5079-2.502 1.1137-4.897 3.3949-7.1845 6.8429l-.1566.245c-.2683.4186-.4735.7266-.6123.9268-1.6218 2.4855-3.1135 4.2367-4.4722 5.2478-1.3579 1.0114-2.8815 1.5196-4.5792 1.5196-1.0813 0-2.0021-.2588-2.7612-.7758-.76414-.5165-1.14366-1.14-1.14366-1.8709 0-.4634.08006-.6904.24537-.6904.07578 0 .10261.1027.07578.3116 0 .4099.21022.6108.63037.6108.24548 0 .46008-.0939.63409-.2898.17435-.1959.26385-.4276.26385-.6994 0-.5838-.28593-.873-.86236-.873-.35745 0-.66595.1555-.92469.4634-.25496.3073-.38428.6814-.38428 1.1181 0 .8685.42446 1.5813 1.26877 2.1337.84896.5526 1.93466.8284 3.26136.8284 2.2519 0 4.4371-.7396 6.5455-2.2182.7957-.5571 1.4253-1.1231 1.8944-1.6976.4647-.57 1.077-1.5278 1.8278-2.8688.232-.428.4154-.7486.5358-.9666l.1294-.232c1.0904-2.0048 2.0999-3.5374 3.0294-4.6019.9248-1.0691 1.9438-1.8626 3.0515-2.3878 2.2785.4855 4.1998.7262 5.7727.7262 1.2016 0 2.2337-.1518 3.087-.4503.8533-.2983 1.2826-.6638 1.2826-1.0913 0-.3655-.3085-.6594-.9209-.878-.6161-.22236-1.4253-.33409-2.4302-.33409-1.6976 0-3.525.37009-5.4687 1.11409-2.4934-.5881-4.0706-.94487-4.7227-1.06489-.6568-.12002-1.3714-.18288-2.1486-.18288-1.2292 0-2.3059.11636-3.2307.35201-.7239-1.0913-1.8897-1.63487-3.4938-1.63487-.921 0-1.8285.20564-2.721.61411-1.3053.88708-2.5048 1.84392-3.5822 2.86322-.0297.0527-.0453.0957-.0453.1268zm25.6008-1.94682c.8041 0 1.4921.09792 2.0641.29422.5717.196.8578.4319.8578.6991 0 .2364-.2367.4457-.7063.6283-.4734.1828-1.0229.2761-1.6526.2761-1.2289 0-2.5781-.1692-4.0481-.5119l-1.7512-.3925c1.5859-.6636 3.3329-.99332 5.2363-.99332zm-15.4946 2.14272c0 1.8623-.7328 3.6978-2.2028 5.5109-1.4654 1.8132-2.9577 2.7176-4.4766 2.7176-.5768 0-1.0589-.2138-1.4483-.637-.3882-.4276-.585-.9441-.585-1.5546 0-1.6349.8758-3.2788 2.6318-4.9366 1.7559-1.6526 3.6413-2.6104 5.6474-2.8598.2903.5928.4335 1.1762.4335 1.7595z"/><path d="m26.8401 25.4806c.0428-.4855.3814-.8487 1.0118-1.0906.8204-.3127 1.2488-.6943 1.2883-1.1455.0338-.381-.1407-.5884-.5234-.622-.3912-.0344-.812.2212-1.2597.7717-.2937.3618-.5014.7309-.6236 1.1068-.9932 1.1654-1.7287 1.7488-2.2069 1.7488-.3357 0-.5006-.1959-.5006-.5885 0-.3473.3038-1.0555.9114-2.1247.6035-1.0736 2.7434-4.6466 6.4068-10.7326-.2769.107-.585.1562-.9156.1562-.2012 0-.4296-.0311-.6928-.1027-1.0813 1.9202-2.4128 4.1922-3.9901 6.8078-1.2908 2.1428-2.0503 3.4346-2.2693 3.88-.2233.4497-.3353.9134-.3353 1.3902 0 .4366.1208.793.3618 1.0779.2415.2804.55.4236.9251.4236.5373 0 1.2764-.5327 2.2179-1.5955-.0153.0839-.0273.1677-.0345.2519-.0656.7461.2142 1.1463.8443 1.2012l-.0399-.1865c-.4176-.0369-.6098-.2462-.5757-.6275z"/><path d="m56.8304 15.4655c-.426-.4385-.6449-.946-.6642-1.5228-.0078-.2841.0371-.5467.1342-.7884-.1099.2534-.1616.5303-.1533.831.0188.5768.2381 1.0848.664 1.5231 1.1402 1.1748 2.9161 1.7489 5.3336 1.7221 2.4147-.03 4.4371-.6492 6.0531-1.8612-.0024-.0079-.0053-.0152-.0083-.0231-1.611 1.1986-3.6248 1.8113-6.0256 1.8416-2.4175.0264-4.1931-.5471-5.3335-1.7223z"/><path d="m68.4976 15.1726c-.2333-.7789-.6673-1.495-1.298-2.1446-1.3239-1.3638-3.1027-2.1333-5.343-2.3082-2.2404-.175-3.9677.3259-5.1846 1.5003-.5136.4957-.7754 1.0584-.7826 1.6913-.0069.6272.2425 1.2044.7457 1.7232 1.1466 1.1816 2.9224 1.7805 5.3295 1.8007 2.4042.0235 4.524-.5406 6.3468-1.6862.3455.8235.5901 1.6266.6572 2.3886.3959 4.4901-1.6671 8.107-4.7282 8.2233-.3331.0007-.5035-.2053-.5035-.6166 0-.4244.4035-1.3092 1.2057-2.6546l2.3175-3.8352c-.3767.0629-.6815.094-.9189.094-.202 0-.4347-.0311-.6946-.094l-.6682 1.2695c.0675-.2458.1031-.4381.1031-.59 0-.5225-.2687-.7864-.8113-.7864-.6409 0-1.479.2859-2.5188.8624-1.2873.7012-2.2243 1.4574-2.8123 2.2707-2.0569 2.7218-3.6848 4.081-4.8934 4.081-.766 0-1.1521-.4113-1.1521-1.2337 0-.9792.529-2.1858 1.5914-3.6295 1.0626-1.4437 1.9587-2.163 2.6847-2.163.4307 0 .6456.1963.6456.5899 0 .5003-.3135.9026-.9367 1.2065-.8112.3934-1.2147.8224-1.2147 1.2872 0 .3934.1972.5903.5916.5903.4036 0 .8117-.2999 1.2191-.903.4082-.6035.6097-1.2068.6097-1.8058 0-.7688-.3222-1.153-.9726-1.153-.5331 0-1.2282.2457-2.0753.7329-1.0089.5676-1.811 1.2421-2.407 2.0247-.1835.2414-.3378.4803-.4644.7167-1.9339 2.4941-3.4757 3.7398-4.6324 3.7398-.7664 0-1.1517-.4113-1.1517-1.2337 0-.9792.5289-2.1858 1.591-3.6295 1.0626-1.4437 1.9594-2.163 2.6854-2.163.4304 0 .6449.1963.6449.5899 0 .5003-.3136.9026-.9364 1.2065-.8112.3934-1.2147.8224-1.2147 1.2872 0 .3934.1972.5903.5913.5903.4038 0 .8116-.2999 1.2194-.903.4082-.6035.6098-1.2068.6098-1.8058 0-.7688-.323-1.153-.973-1.153-.5332 0-1.2282.2457-2.0753.7329-1.0085.5676-1.8107 1.2421-2.407 2.0247-.219.2891-.3973.5743-.5355.8563l-.2037.2834c-1.5741 2.2124-2.708 3.3168-3.4068 3.3168-.359 0-.5381-.188-.5381-.5632-.0003-.4605.5019-1.5066 1.5016-3.1293l2.1021-3.4147c-.4034.0629-.7126.094-.9323.094-.1838 0-.4078-.0311-.6815-.0936l-1.2905 2.1721c-1.9547 3.2892-3.3753 4.9347-4.2583 4.9347-.3361 0-.5022-.197-.5022-.5907 0-.4019.157-.8624.4749-1.3851l3.1288-5.1314c-.4303.0629-.7261.094-.8917.094-.1661 0-.3988-.0311-.6949-.094l-1.4795 2.4728c-.0427.0018-.0811.0455-.1239.1312-1.8604 2.7142-3.1738 4.0722-3.9311 4.0722-.3502 0-.5251-.1745-.5251-.5236 0-.3323.4026-1.1 1.2081-2.3004.7877-1.1784 1.1821-2.0517 1.1821-2.6232 0-.4497-.1438-.8466-.4498-1.1058l-.0439.0156.0127-.0506c-.4111.0571-.8519.2429-1.322.5592l-.1476.1074c-.3031.2213-.6866.5916-1.1485 1.109-.4628.5168-.8729 1.0309-1.2336 1.5448-.7202 1.0414-1.1853 1.6968-1.3941 1.9671-.1918.2487-.4144.4945-.671.7349-.8654.596-.8863.5996-1.905.7429l.0399.1864c.4655 0 1.0727-.1786 1.7143-.5226.5438-.2976.9817-.6301 1.312-.9985.3312-.3679.7235-.9705 1.1759-1.804.7496-1.379 1.4706-2.3427 2.1642-2.8892l.1438-.1124c.3248-.2165.6363-.3697.9335-.4584h-.0004l.0047.0417c0 .2833-.3433.9776-1.0415 1.9974-.6677.9749-1.0809 1.6236-1.243 1.9508-.1577.3279-.2363.6858-.2363 1.0697 0 .4318.1312.7987.3897 1.0951.2624.3015.5822.45.9672.45.5777 0 1.3789-.6068 2.3946-1.8203.3422-.4103.6373-.7706.8853-1.0804l-.0254.0419c-.3948.6521-.5916 1.2334-.5916 1.7387 0 .4334.1301.8046.394 1.1038.2651.2994.5877.4512.973.4512.3676 0 .7577-.1967 1.1698-.59.3766-.3484.9687-1.037 1.7753-2.0646l.2598-.3531c-.3404.6123-.5107 1.0858-.5107 1.4252 0 .4385.1344.8094.3991 1.1181.2685.3082.5916.4644.9766.4644.6097 0 1.4439-.621 2.4925-1.8634.3825-.4536.7076-.8476.9748-1.1819-.055.2287-.0826.454-.0826.6766 0 .6481.2193 1.2022.6543 1.6674.439.4692.9635.7013 1.5733.7013.946 0 2.0934-.7374 3.438-2.2078.4064-.4461.746-.8256 1.0186-1.1379-.1146.3317-.1715.6571-.1715.977 0 .6481.2197 1.2022.6544 1.6674.4396.4692.9638.7013 1.5736.7013.9455 0 2.0931-.7374 3.4377-2.2078.4157-.4562.7605-.8422 1.0367-1.1582-.162.4114-.2432.8361-.2432 1.2745 0 .5986.157 1.0993.4708 1.4972.3136.3976.7037.5943 1.1652.5943.4393 0 .8877-.2143 1.3539-.6435.4618-.4247 1.1295-1.2514 2.0035-2.4716-.2823.5501-.4211 1.0591-.4211 1.5289 0 .4555.1254.8314.381 1.135.2512.2994.5781.4512.9816.4512 3.0683-.116 5.3963-3.9667 5.0047-8.4539-.063-.7229-.2639-1.5616-.5339-2.552.2279-.1297.7047-.3437.9842-.6864-.1447-.1959-.2933-.3904-.4458-.5831.0083.3192-.2202.5531-.6429.899zm-.2997.1966c-1.6161 1.2121-3.6385 1.8312-6.0531 1.8612-2.4175.0268-4.1935-.5473-5.3336-1.7221-.4259-.4383-.6452-.9462-.664-1.5231-.0084-.3007.0434-.5776.1532-.831.0986-.2468.2527-.4717.4619-.6734 1.0914-1.0534 2.7945-1.4386 5.1124-1.152 2.3208.2837 4.1275 1.0949 5.426 2.4326.4074.4197.7116.9381.9164 1.5652-.009.0066-.0185.0126-.0275.0196.0028.0078.0057.0152.0083.023zm-5.1292 7.9887c-1.4923 2.0026-2.5367 3.0039-3.1421 3.0039-.5064 0-.762-.2863-.762-.8538 0-.9702.6548-2.2392 1.9633-3.8127 1.3091-1.5736 2.3669-2.3597 3.1737-2.3597.3945 0 .5917.2143.5917.6435 0 .6123-.6093 1.7385-1.8246 3.3788z"/><path d="m15.6489 35.5066c-.1337.1955-.3107.3382-.4687.4145-.2436.1193-.5402.124-.6119.124-.4205 0-.7312-.1428-.9179-.3383-.1671-.1764-.2722-.4291-.2722-.7102 0-.3196.1384-.5531.2867-.7056.2821-.2907.6264-.3528.9324-.3528.2197 0 .4158.0286.6261.1384.1816.0903.3058.2049.3969.3192l-.4064.2812c-.0623-.0763-.153-.1526-.2534-.1999-.1243-.0575-.2726-.0668-.3825-.0668-.1627 0-.3824.0285-.5401.1904-.1004.1052-.153.248-.153.3911 0 .1619.0667.3099.1766.41.1196.1095.306.1669.526.1669.091 0 .2534-.0144.3969-.0907.1051-.0572.2056-.162.2676-.2433z"/><path d="m17.5817 35.5543h-.8414l-.22.4338h-.5401l1.0277-2.0023h.306l1.0328 2.0023h-.5453zm-.6358-.4053h.4303l-.2153-.4481z"/><path d="m20.4123 35.1537h-1.0469v.8344h-.4924v-2.0023h.4924v.6912h1.0469v-.6912h.4926v2.0023h-.4926z"/><path d="m23.0369 35.5543h-.8414l-.2201.4338h-.5401l1.0277-2.0023h.306l1.0328 2.0023h-.5452zm-.6359-.4053h.43l-.215-.4481z"/><path d="m25.0566 35.9881h-.4926v-1.5399h-.7598v-.4624h2.0127v.4624h-.7603z"/><path d="m26.2505 34.9871c0-.6054.4974-1.0489 1.205-1.0489.7118 0 1.2092.4388 1.2092 1.0489 0 .6051-.4974 1.058-1.2092 1.058-.7076 0-1.205-.4622-1.205-1.058zm.502-.005c0 .3289.2581.6054.703.6054.4538 0 .7072-.2812.7072-.6054 0-.3145-.2581-.5958-.7072-.5958-.4449 0-.703.2766-.703.5958z"/><path d="m31.3155 34.1669c.1385.1338.1624.3102.1624.4338 0 .2386-.0957.3864-.1769.4674-.1769.1764-.3825.1811-.5499.1811h-.8842v.7389h-.4973v-2.0023h1.4152c.3153 0 .473.1288.5307.1811zm-.4064.5914c.0526-.0429.062-.1001.062-.1431 0-.0431-.0047-.1049-.062-.1432-.0478-.0332-.1291-.0379-.1722-.0379h-.87v.3669h.8795c.0572 0 .1244-.0095.1627-.0427z"/><path d="m33.6435 35.1537h-1.047v.8344h-.4923v-2.0023h.4923v.6912h1.047v-.6912h.4925v2.0023h-.4925z"/><path d="m34.8396 34.9871c0-.6054.4974-1.0489 1.2049-1.0489.712 0 1.2094.4388 1.2094 1.0489 0 .6051-.4974 1.058-1.2094 1.058-.7075 0-1.2049-.4622-1.2049-1.058zm.5021-.005c0 .3289.258.6054.7028.6054.4539 0 .7073-.2812.7073-.6054 0-.3145-.2581-.5958-.7073-.5958-.4448 0-.7028.2766-.7028.5958z"/><path d="m37.8672 34.4961h1.1234v.4674h-1.1234z"/><path d="m40.4516 35.0486-.2436.2096v.7296h-.4927v-1.9976h.4927v.6677l.8029-.6677h.7028l-.899.758.9325 1.2396h-.5787z"/><path d="m43.2473 34.8487.5069-.8629h.588l-1.2238 2.0023h-.5641l.3872-.6533-.8316-1.349h.6213z"/><path d="m46.8675 34.1669c.1385.1338.1625.3102.1625.4338 0 .2386-.0958.3864-.177.4674-.1769.1764-.3824.1811-.5499.1811h-.8841v.7389h-.4974v-2.0023h1.4153c.3154 0 .473.1288.5306.1811zm-.4063.5914c.0526-.0429.062-.1001.062-.1431 0-.0431-.0047-.1049-.062-.1432-.0478-.0332-.129-.0379-.1722-.0379h-.87v.3669h.8794c.0573 0 .1243-.0095.1628-.0427z"/><path d="m47.5498 34.9871c0-.6054.4974-1.0489 1.2051-1.0489.7119 0 1.2091.4388 1.2091 1.0489 0 .6051-.4972 1.058-1.2091 1.058-.7077 0-1.2051-.4622-1.2051-1.058zm.502-.005c0 .3289.2582.6054.7031.6054.4538 0 .7071-.2812.7071-.6054 0-.3145-.2581-.5958-.7071-.5958-.4449 0-.7031.2766-.7031.5958z"/><path d="m52.6156 34.1669c.1384.1338.1623.3102.1623.4338 0 .2386-.0956.3864-.1768.4674-.1769.1764-.3825.1811-.55.1811h-.884v.7389h-.4974v-2.0023h1.4152c.3154 0 .4731.1288.5307.1811zm-.4064.5914c.0526-.0429.062-.1001.062-.1431 0-.0431-.0047-.1049-.062-.1432-.0479-.0332-.129-.0379-.1722-.0379h-.8699v.3669h.8793c.0577 0 .1244-.0095.1628-.0427z"/><path d="m54.4891 35.9881h-.4923v-1.5399h-.7602v-.4624h2.0126v.4624h-.7601z"/><path d="m57.3629 35.1537h-1.0469v.8344h-.4923v-2.0023h.4923v.6912h1.0469v-.6912h.4927v2.0023h-.4927z"/><path d="m59.9921 34.6914c.1099 0 .344.0095.5115.1718.1385.1333.1671.3237.1671.467 0 .1431-.0239.3195-.1769.467-.1718.1669-.3966.1908-.5593.1908h-1.2238v-2.0022h.4973v.7056zm-.7841.8437h.7362c.0479 0 .1193 0 .1723-.0571.0332-.0333.0474-.0857.0474-.1478 0-.081-.0333-.1241-.0619-.1479-.0527-.038-.1147-.038-.1675-.038h-.7265zm1.6874-1.5539h.4974v2.0114h-.4974z"/><path d="m62.2527 35.988v-2.0022h.4781v1.1871l1.023-1.1871h.3444v2.0022h-.4781v-1.1871l-1.0231 1.1871zm1.6446-2.822c0 .1334-.0336.3337-.1721.467-.1482.1431-.3441.1623-.5355.1623s-.3871-.0192-.5354-.1623c-.1384-.1333-.1721-.3336-.1721-.467h.349c.0048.0669.0334.1572.0859.2049.0718.0623.2008.0623.2726.0623.0717 0 .2009 0 .2727-.0623.0526-.0477.0812-.138.0858-.2049z"/><path d="m29.1857 39.8609-.2436.2096v.7295h-.4926v-1.9975h.4926v.6676l.803-.6676h.7029l-.8991.7579.9324 1.2396h-.5786z"/><path d="m30.7512 39.7989c0-.6054.4973-1.0489 1.205-1.0489.7123 0 1.2093.4388 1.2093 1.0489 0 .6051-.497 1.058-1.2093 1.058-.7077 0-1.205-.4623-1.205-1.058zm.502-.005c0 .3289.2582.6054.703.6054.4538 0 .7073-.2813.7073-.6054 0-.3145-.2582-.5957-.7073-.5957-.4448 0-.703.2765-.703.5957z"/><path d="m35.5403 39.7273-.5973.796-.588-.796v1.0725h-.4734v-2.0022h.373l.6884 1.006.6978-1.006h.373v2.0022h-.4735z"/><path d="m38.3726 39.2745h-.9991v1.5253h-.4973v-2.0022h1.9934v2.0022h-.497z"/><path d="m40.5176 39.5463-.5645 1.2535h-.5542l.9704-2.0022h.3014l.9703 2.0022h-.5547z"/><path d="m42.168 38.7976h1.8981v.4482h-1.4058v.3005h.9229v.429h-.9229v.3716h1.4819v.4529h-1.9742z"/><path d="m45.5531 39.8609-.2435.2096v.7295h-.4927v-1.9975h.4927v.6676l.8029-.6676h.7029l-.899.7579.9324 1.2396h-.5786z"/><path d="m49.3946 40.3184c-.1341.1955-.3107.3382-.4687.4145-.2436.1193-.5401.124-.6119.124-.4206 0-.7312-.1428-.9179-.3383-.1671-.1764-.2723-.4291-.2723-.7103 0-.3195.1386-.553.2869-.7056.282-.2906.6259-.3527.9319-.3527.2201 0 .4162.0285.6264.1384.1816.0903.306.2049.3969.3191l-.4064.2814c-.0622-.0764-.1529-.1527-.2533-.2-.1244-.0575-.2727-.0669-.3824-.0669-.1628 0-.3825.0286-.5402.1905-.1004.1052-.153.248-.153.3911 0 .1619.0668.3099.1769.4099.1193.1096.3059.167.5256.167.0911 0 .2534-.0144.3971-.0907.1051-.0572.2054-.162.2674-.2433z"/></g></svg>