<svg width="16" height="16" viewBox="0 0 16 16" fill="none" xmlns="http://www.w3.org/2000/svg">
<g clip-path="url(#clip0)">
<path d="M6.66666 14C7.03485 14 7.33333 13.7015 7.33333 13.3333C7.33333 12.9651 7.03485 12.6666 6.66666 12.6666C6.29848 12.6666 6 12.9651 6 13.3333C6 13.7015 6.29848 14 6.66666 14Z" fill="#457A90"/>
<path d="M10.6667 14C11.0349 14 11.3333 13.7015 11.3333 13.3333C11.3333 12.9651 11.0349 12.6666 10.6667 12.6666C10.2985 12.6666 10 12.9651 10 13.3333C10 13.7015 10.2985 14 10.6667 14Z" fill="#457A90"/>
<path d="M2.66666 14C3.03485 14 3.33333 13.7015 3.33333 13.3333C3.33333 12.9651 3.03485 12.6666 2.66666 12.6666C2.29848 12.6666 2 12.9651 2 13.3333C2 13.7015 2.29848 14 2.66666 14Z" fill="#457A90"/>
<path d="M4.66666 15.9999C5.03485 15.9999 5.33333 15.7015 5.33333 15.3333C5.33333 14.9651 5.03485 14.6666 4.66666 14.6666C4.29848 14.6666 4 14.9651 4 15.3333C4 15.7015 4.29848 15.9999 4.66666 15.9999Z" fill="#457A90"/>
<path d="M8.66667 15.9999C9.03487 15.9999 9.33334 15.7015 9.33334 15.3333C9.33334 14.9651 9.03487 14.6666 8.66667 14.6666C8.29848 14.6666 8 14.9651 8 15.3333C8 15.7015 8.29848 15.9999 8.66667 15.9999Z" fill="#457A90"/>
<path d="M10.6667 0C9.53852 0.0015406 8.44898 0.411192 7.59925 1.15332C6.74952 1.89545 6.19697 2.91995 6.04362 4.03767C4.86111 4.17873 3.75963 4.71086 2.91413 5.54953C2.06864 6.38821 1.5276 7.48534 1.37695 8.66667H11.9569C11.8084 7.50266 11.2809 6.41989 10.4558 5.58551C9.63075 4.75113 8.55397 4.21152 7.3917 4.05C7.54624 3.2348 7.99926 2.50655 8.66218 2.00759C9.32511 1.50864 10.1503 1.27486 10.9764 1.35195C11.8025 1.42904 12.5702 1.81146 13.1294 2.42446C13.6885 3.03745 13.999 3.83695 14 4.66667V16H15.3334V4.66667C15.332 3.42942 14.8398 2.24326 13.965 1.36839C13.0901 0.49353 11.9039 0.00141157 10.6667 0V0Z" fill="#457A90"/>
<path d="M12.0003 9.33337H1.33366C0.965469 9.33337 0.666992 9.63185 0.666992 10V11.3334C0.666992 11.7016 0.965469 12 1.33366 12H12.0003C12.3685 12 12.667 11.7016 12.667 11.3334V10C12.667 9.63185 12.3685 9.33337 12.0003 9.33337Z" fill="#457A90"/>
</g>
<defs>
<clipPath id="clip0">
<rect width="16" height="16" fill="white"/>
</clipPath>
</defs>
</svg>
